<svg width="100%" height="100%" id="svg" viewBox="0 0 1440 590" xmlns="http://www.w3.org/2000/svg" class="transition duration-300 ease-in-out delay-150"><defs><linearGradient id="gradient" x1="0%" y1="50%" x2="100%" y2="50%"><stop offset="5%" stop-color="#110D2C"></stop><stop offset="95%" stop-color="#441960"></stop></linearGradient></defs><path d="M 0,600 C 0,600 0,200 0,200 C 128.55502392344502,219.50239234449762 257.11004784689004,239.00478468899524 334,254 C 410.88995215310996,268.99521531100476 436.11483253588506,279.48325358851673 522,244 C 607.8851674641149,208.51674641148324 754.4306220095694,127.0622009569378 869,132 C 983.5693779904306,136.9377990430622 1066.1626794258373,228.26794258373207 1156,254 C 1245.8373205741627,279.73205741626793 1342.9186602870814,239.86602870813397 1440,200 C 1440,200 1440,600 1440,600 Z" stroke="none" stroke-width="0" fill="url(#gradient)" fill-opacity="0.53" class="transition-all duration-300 ease-in-out delay-150 path-0"></path><defs><linearGradient id="gradient" x1="0%" y1="50%" x2="100%" y2="50%"><stop offset="5%" stop-color="#110D2C"></stop><stop offset="95%" stop-color="#441960"></stop></linearGradient></defs><path d="M 0,600 C 0,600 0,400 0,400 C 74.65071770334927,430.3157894736842 149.30143540669854,460.63157894736844 243,469 C 336.69856459330146,477.36842105263156 449.444976076555,463.7894736842105 559,465 C 668.555023923445,466.2105263157895 774.9186602870813,482.2105263157894 880,454 C 985.0813397129187,425.7894736842106 1088.8803827751196,353.36842105263156 1182,337 C 1275.1196172248804,320.63157894736844 1357.55980861244,360.3157894736842 1440,400 C 1440,400 1440,600 1440,600 Z" stroke="none" stroke-width="0" fill="url(#gradient)" fill-opacity="1" class="transition-all duration-300 ease-in-out delay-150 path-1"></path></svg>
